<svg width="37" height="31" viewBox="0 0 37 31" fill="none" xmlns="http://www.w3.org/2000/svg">
<path d="M34.0343 16.7401C33.8908 17.2734 34.2067 17.8221 34.74 17.9657C35.2733 18.1092 35.822 17.7933 35.9656 17.26L34.0343 16.7401ZM3.49996 9.00004L4.39438 9.44726L3.49996 9.00004ZM20.5 31H21.5V29H20.5V31ZM35.9656 17.26C36.9454 13.6206 35.7649 10.1692 33.4494 7.37728C31.1435 4.59689 27.6738 2.4089 23.8714 1.17392C16.3058 -1.28327 6.91554 -0.0671636 2.60553 8.55283L4.39438 9.44726C8.08442 2.06721 16.1941 0.783295 23.2536 3.07611C26.7637 4.21614 29.8877 6.21565 31.9099 8.65402C33.9226 11.0808 34.8045 13.8794 34.0343 16.7401L35.9656 17.26ZM2.60553 8.55283C0.649516 12.4648 0.311683 15.9002 1.12529 18.8525C1.93451 21.789 3.84629 24.1154 6.14813 25.896C10.7135 29.4275 17.0531 31 20.5 31V29C17.4468 29 11.5498 27.5459 7.37183 24.314C5.30201 22.7129 3.71545 20.7235 3.05341 18.3212C2.39576 15.9348 2.61375 13.0085 4.39438 9.44726L2.60553 8.55283Z" fill="#262626"/>
</svg>
